<mxfile host="app.diagrams.net" modified="2020-10-09T15:58:04.479Z" agent="5.0 (Windows NT 6.1; Win64; x64) AppleWebKit/537.36 (KHTML, like Gecko) Chrome/85.0.4183.121 Safari/537.36" etag="5bKwRtGqjDu9y3oKLMyQ" version="13.7.9" type="github">
  <diagram id="mOV8gYa-eBq1QURc6svk" name="Page-1">
    <mxGraphModel dx="1342" dy="914" grid="1" gridSize="10" guides="1" tooltips="1" connect="1" arrows="1" fold="1" page="1" pageScale="1" pageWidth="850" pageHeight="1100" math="0" shadow="0">
      <root>
        <mxCell id="0" />
        <mxCell id="1" parent="0" />
        <mxCell id="QTViAyldEMy0qYSyokXr-1" value="" style="endArrow=none;html=1;" edge="1" parent="1">
          <mxGeometry width="50" height="50" relative="1" as="geometry">
            <mxPoint x="320" y="400" as="sourcePoint" />
            <mxPoint x="440" y="400" as="targetPoint" />
          </mxGeometry>
        </mxCell>
        <mxCell id="QTViAyldEMy0qYSyokXr-2" value="" style="endArrow=none;html=1;" edge="1" parent="1">
          <mxGeometry width="50" height="50" relative="1" as="geometry">
            <mxPoint x="440" y="400" as="sourcePoint" />
            <mxPoint x="440" y="120" as="targetPoint" />
          </mxGeometry>
        </mxCell>
        <mxCell id="QTViAyldEMy0qYSyokXr-3" value="" style="endArrow=none;html=1;" edge="1" parent="1">
          <mxGeometry width="50" height="50" relative="1" as="geometry">
            <mxPoint x="360" y="120" as="sourcePoint" />
            <mxPoint x="440" y="120" as="targetPoint" />
          </mxGeometry>
        </mxCell>
        <mxCell id="QTViAyldEMy0qYSyokXr-4" value="" style="endArrow=none;html=1;" edge="1" parent="1">
          <mxGeometry width="50" height="50" relative="1" as="geometry">
            <mxPoint x="360" y="160" as="sourcePoint" />
            <mxPoint x="360" y="120" as="targetPoint" />
          </mxGeometry>
        </mxCell>
        <mxCell id="QTViAyldEMy0qYSyokXr-7" value="" style="whiteSpace=wrap;html=1;aspect=fixed;" vertex="1" parent="1">
          <mxGeometry x="240" y="440" width="30" height="30" as="geometry" />
        </mxCell>
        <mxCell id="QTViAyldEMy0qYSyokXr-8" value="" style="whiteSpace=wrap;html=1;aspect=fixed;" vertex="1" parent="1">
          <mxGeometry x="320" y="440" width="30" height="30" as="geometry" />
        </mxCell>
        <mxCell id="QTViAyldEMy0qYSyokXr-9" value="" style="whiteSpace=wrap;html=1;aspect=fixed;" vertex="1" parent="1">
          <mxGeometry x="280" y="440" width="30" height="30" as="geometry" />
        </mxCell>
        <mxCell id="QTViAyldEMy0qYSyokXr-10" value="" style="whiteSpace=wrap;html=1;aspect=fixed;" vertex="1" parent="1">
          <mxGeometry x="360" y="440" width="30" height="30" as="geometry" />
        </mxCell>
        <mxCell id="QTViAyldEMy0qYSyokXr-11" value="" style="whiteSpace=wrap;html=1;aspect=fixed;" vertex="1" parent="1">
          <mxGeometry x="400" y="440" width="30" height="30" as="geometry" />
        </mxCell>
        <mxCell id="QTViAyldEMy0qYSyokXr-12" value="" style="whiteSpace=wrap;html=1;aspect=fixed;" vertex="1" parent="1">
          <mxGeometry x="440" y="440" width="30" height="30" as="geometry" />
        </mxCell>
        <mxCell id="QTViAyldEMy0qYSyokXr-13" value="" style="endArrow=none;html=1;" edge="1" parent="1">
          <mxGeometry width="50" height="50" relative="1" as="geometry">
            <mxPoint x="240" y="480" as="sourcePoint" />
            <mxPoint x="470" y="480" as="targetPoint" />
          </mxGeometry>
        </mxCell>
        <mxCell id="QTViAyldEMy0qYSyokXr-28" style="edgeStyle=orthogonalEdgeStyle;rounded=0;orthogonalLoop=1;jettySize=auto;html=1;" edge="1" parent="1" source="QTViAyldEMy0qYSyokXr-15" target="QTViAyldEMy0qYSyokXr-16">
          <mxGeometry relative="1" as="geometry" />
        </mxCell>
        <mxCell id="QTViAyldEMy0qYSyokXr-15" value="start" style="rounded=1;whiteSpace=wrap;html=1;" vertex="1" parent="1">
          <mxGeometry x="560" y="100" width="120" height="60" as="geometry" />
        </mxCell>
        <mxCell id="QTViAyldEMy0qYSyokXr-29" style="edgeStyle=orthogonalEdgeStyle;rounded=0;orthogonalLoop=1;jettySize=auto;html=1;" edge="1" parent="1" source="QTViAyldEMy0qYSyokXr-16" target="QTViAyldEMy0qYSyokXr-17">
          <mxGeometry relative="1" as="geometry" />
        </mxCell>
        <mxCell id="QTViAyldEMy0qYSyokXr-16" value="create the board&amp;nbsp;" style="rounded=0;whiteSpace=wrap;html=1;" vertex="1" parent="1">
          <mxGeometry x="560" y="190" width="120" height="60" as="geometry" />
        </mxCell>
        <mxCell id="QTViAyldEMy0qYSyokXr-30" style="edgeStyle=orthogonalEdgeStyle;rounded=0;orthogonalLoop=1;jettySize=auto;html=1;" edge="1" parent="1" source="QTViAyldEMy0qYSyokXr-17" target="QTViAyldEMy0qYSyokXr-18">
          <mxGeometry relative="1" as="geometry" />
        </mxCell>
        <mxCell id="QTViAyldEMy0qYSyokXr-17" value="pick the word" style="rounded=0;whiteSpace=wrap;html=1;" vertex="1" parent="1">
          <mxGeometry x="560" y="280" width="120" height="60" as="geometry" />
        </mxCell>
        <mxCell id="QTViAyldEMy0qYSyokXr-32" style="edgeStyle=orthogonalEdgeStyle;rounded=0;orthogonalLoop=1;jettySize=auto;html=1;entryX=0.5;entryY=0;entryDx=0;entryDy=0;entryPerimeter=0;" edge="1" parent="1" source="QTViAyldEMy0qYSyokXr-18" target="QTViAyldEMy0qYSyokXr-26">
          <mxGeometry relative="1" as="geometry" />
        </mxCell>
        <mxCell id="QTViAyldEMy0qYSyokXr-18" value="display board and word to user" style="strokeWidth=2;html=1;shape=mxgraph.flowchart.display;whiteSpace=wrap;" vertex="1" parent="1">
          <mxGeometry x="570" y="350" width="100" height="60" as="geometry" />
        </mxCell>
        <mxCell id="QTViAyldEMy0qYSyokXr-34" style="edgeStyle=orthogonalEdgeStyle;rounded=0;orthogonalLoop=1;jettySize=auto;html=1;" edge="1" parent="1" source="QTViAyldEMy0qYSyokXr-19" target="QTViAyldEMy0qYSyokXr-22">
          <mxGeometry relative="1" as="geometry" />
        </mxCell>
        <mxCell id="QTViAyldEMy0qYSyokXr-19" value="ask user for letter&amp;nbsp;" style="shape=parallelogram;perimeter=parallelogramPerimeter;whiteSpace=wrap;html=1;fixedSize=1;" vertex="1" parent="1">
          <mxGeometry x="560" y="500" width="120" height="60" as="geometry" />
        </mxCell>
        <mxCell id="QTViAyldEMy0qYSyokXr-20" value="brqeai" style="text;html=1;strokeColor=none;fillColor=none;align=center;verticalAlign=middle;whiteSpace=wrap;rounded=0;" vertex="1" parent="1">
          <mxGeometry x="171" y="530" width="160" height="160" as="geometry" />
        </mxCell>
        <mxCell id="QTViAyldEMy0qYSyokXr-21" value="" style="ellipse;whiteSpace=wrap;html=1;aspect=fixed;" vertex="1" parent="1">
          <mxGeometry x="340" y="160" width="40" height="40" as="geometry" />
        </mxCell>
        <mxCell id="QTViAyldEMy0qYSyokXr-35" style="edgeStyle=orthogonalEdgeStyle;rounded=0;orthogonalLoop=1;jettySize=auto;html=1;" edge="1" parent="1" source="QTViAyldEMy0qYSyokXr-22" target="QTViAyldEMy0qYSyokXr-23">
          <mxGeometry relative="1" as="geometry" />
        </mxCell>
        <mxCell id="QTViAyldEMy0qYSyokXr-22" value="check if letter is in the word" style="strokeWidth=2;html=1;shape=mxgraph.flowchart.merge_or_storage;whiteSpace=wrap;" vertex="1" parent="1">
          <mxGeometry x="572.5" y="580" width="95" height="60" as="geometry" />
        </mxCell>
        <mxCell id="QTViAyldEMy0qYSyokXr-36" style="edgeStyle=orthogonalEdgeStyle;rounded=0;orthogonalLoop=1;jettySize=auto;html=1;" edge="1" parent="1" source="QTViAyldEMy0qYSyokXr-23" target="QTViAyldEMy0qYSyokXr-25">
          <mxGeometry relative="1" as="geometry" />
        </mxCell>
        <mxCell id="QTViAyldEMy0qYSyokXr-37" style="edgeStyle=orthogonalEdgeStyle;rounded=0;orthogonalLoop=1;jettySize=auto;html=1;" edge="1" parent="1" source="QTViAyldEMy0qYSyokXr-23" target="QTViAyldEMy0qYSyokXr-24">
          <mxGeometry relative="1" as="geometry" />
        </mxCell>
        <mxCell id="QTViAyldEMy0qYSyokXr-23" value="if letter in word" style="strokeWidth=2;html=1;shape=mxgraph.flowchart.decision;whiteSpace=wrap;" vertex="1" parent="1">
          <mxGeometry x="570" y="660" width="100" height="100" as="geometry" />
        </mxCell>
        <mxCell id="QTViAyldEMy0qYSyokXr-40" style="edgeStyle=orthogonalEdgeStyle;rounded=0;orthogonalLoop=1;jettySize=auto;html=1;entryX=1;entryY=0;entryDx=0;entryDy=0;entryPerimeter=0;" edge="1" parent="1" source="QTViAyldEMy0qYSyokXr-24" target="QTViAyldEMy0qYSyokXr-26">
          <mxGeometry relative="1" as="geometry">
            <Array as="points">
              <mxPoint x="830" y="710" />
              <mxPoint x="830" y="425" />
            </Array>
          </mxGeometry>
        </mxCell>
        <mxCell id="QTViAyldEMy0qYSyokXr-49" style="edgeStyle=orthogonalEdgeStyle;rounded=0;orthogonalLoop=1;jettySize=auto;html=1;entryX=1;entryY=0.5;entryDx=0;entryDy=0;entryPerimeter=0;" edge="1" parent="1" source="QTViAyldEMy0qYSyokXr-24" target="QTViAyldEMy0qYSyokXr-47">
          <mxGeometry relative="1" as="geometry">
            <Array as="points">
              <mxPoint x="760" y="810" />
            </Array>
          </mxGeometry>
        </mxCell>
        <mxCell id="QTViAyldEMy0qYSyokXr-24" value="update word" style="rounded=0;whiteSpace=wrap;html=1;" vertex="1" parent="1">
          <mxGeometry x="700" y="680" width="120" height="60" as="geometry" />
        </mxCell>
        <mxCell id="QTViAyldEMy0qYSyokXr-38" style="edgeStyle=orthogonalEdgeStyle;rounded=0;orthogonalLoop=1;jettySize=auto;html=1;" edge="1" parent="1" source="QTViAyldEMy0qYSyokXr-25" target="QTViAyldEMy0qYSyokXr-27">
          <mxGeometry relative="1" as="geometry" />
        </mxCell>
        <mxCell id="QTViAyldEMy0qYSyokXr-25" value="update hangman" style="rounded=0;whiteSpace=wrap;html=1;" vertex="1" parent="1">
          <mxGeometry x="425" y="680" width="120" height="60" as="geometry" />
        </mxCell>
        <mxCell id="QTViAyldEMy0qYSyokXr-33" style="edgeStyle=orthogonalEdgeStyle;rounded=0;orthogonalLoop=1;jettySize=auto;html=1;" edge="1" parent="1" source="QTViAyldEMy0qYSyokXr-26" target="QTViAyldEMy0qYSyokXr-19">
          <mxGeometry relative="1" as="geometry" />
        </mxCell>
        <mxCell id="QTViAyldEMy0qYSyokXr-26" value="while playing" style="strokeWidth=2;html=1;shape=mxgraph.flowchart.merge_or_storage;whiteSpace=wrap;" vertex="1" parent="1">
          <mxGeometry x="572.5" y="425" width="95" height="60" as="geometry" />
        </mxCell>
        <mxCell id="QTViAyldEMy0qYSyokXr-39" style="edgeStyle=orthogonalEdgeStyle;rounded=0;orthogonalLoop=1;jettySize=auto;html=1;entryX=0;entryY=0;entryDx=0;entryDy=0;entryPerimeter=0;" edge="1" parent="1" source="QTViAyldEMy0qYSyokXr-27" target="QTViAyldEMy0qYSyokXr-26">
          <mxGeometry relative="1" as="geometry">
            <Array as="points">
              <mxPoint x="390" y="810" />
              <mxPoint x="390" y="623" />
              <mxPoint x="553" y="623" />
              <mxPoint x="553" y="425" />
            </Array>
          </mxGeometry>
        </mxCell>
        <mxCell id="QTViAyldEMy0qYSyokXr-48" style="edgeStyle=orthogonalEdgeStyle;rounded=0;orthogonalLoop=1;jettySize=auto;html=1;" edge="1" parent="1" source="QTViAyldEMy0qYSyokXr-27" target="QTViAyldEMy0qYSyokXr-47">
          <mxGeometry relative="1" as="geometry" />
        </mxCell>
        <mxCell id="QTViAyldEMy0qYSyokXr-27" value="update wrong list" style="rounded=0;whiteSpace=wrap;html=1;" vertex="1" parent="1">
          <mxGeometry x="425" y="780" width="120" height="60" as="geometry" />
        </mxCell>
        <mxCell id="QTViAyldEMy0qYSyokXr-41" value="" style="endArrow=none;html=1;entryX=0.5;entryY=1;entryDx=0;entryDy=0;" edge="1" parent="1" target="QTViAyldEMy0qYSyokXr-21">
          <mxGeometry width="50" height="50" relative="1" as="geometry">
            <mxPoint x="360" y="280" as="sourcePoint" />
            <mxPoint x="390" y="420" as="targetPoint" />
          </mxGeometry>
        </mxCell>
        <mxCell id="QTViAyldEMy0qYSyokXr-42" value="" style="endArrow=none;html=1;" edge="1" parent="1">
          <mxGeometry width="50" height="50" relative="1" as="geometry">
            <mxPoint x="400" y="320" as="sourcePoint" />
            <mxPoint x="360" y="280" as="targetPoint" />
          </mxGeometry>
        </mxCell>
        <mxCell id="QTViAyldEMy0qYSyokXr-44" value="" style="endArrow=none;html=1;" edge="1" parent="1">
          <mxGeometry width="50" height="50" relative="1" as="geometry">
            <mxPoint x="320" y="260" as="sourcePoint" />
            <mxPoint x="360" y="220" as="targetPoint" />
          </mxGeometry>
        </mxCell>
        <mxCell id="QTViAyldEMy0qYSyokXr-45" value="" style="endArrow=none;html=1;" edge="1" parent="1">
          <mxGeometry width="50" height="50" relative="1" as="geometry">
            <mxPoint x="320" y="320" as="sourcePoint" />
            <mxPoint x="360" y="280" as="targetPoint" />
          </mxGeometry>
        </mxCell>
        <mxCell id="QTViAyldEMy0qYSyokXr-46" value="" style="endArrow=none;html=1;" edge="1" parent="1">
          <mxGeometry width="50" height="50" relative="1" as="geometry">
            <mxPoint x="400" y="260" as="sourcePoint" />
            <mxPoint x="360" y="220" as="targetPoint" />
          </mxGeometry>
        </mxCell>
        <mxCell id="QTViAyldEMy0qYSyokXr-53" style="edgeStyle=orthogonalEdgeStyle;rounded=0;orthogonalLoop=1;jettySize=auto;html=1;" edge="1" parent="1" source="QTViAyldEMy0qYSyokXr-47" target="QTViAyldEMy0qYSyokXr-50">
          <mxGeometry relative="1" as="geometry" />
        </mxCell>
        <mxCell id="QTViAyldEMy0qYSyokXr-47" value="end while loop" style="strokeWidth=2;html=1;shape=mxgraph.flowchart.loop_limit;whiteSpace=wrap;" vertex="1" parent="1">
          <mxGeometry x="570" y="780" width="100" height="60" as="geometry" />
        </mxCell>
        <mxCell id="QTViAyldEMy0qYSyokXr-54" style="edgeStyle=orthogonalEdgeStyle;rounded=0;orthogonalLoop=1;jettySize=auto;html=1;" edge="1" parent="1" source="QTViAyldEMy0qYSyokXr-50" target="QTViAyldEMy0qYSyokXr-51">
          <mxGeometry relative="1" as="geometry" />
        </mxCell>
        <mxCell id="QTViAyldEMy0qYSyokXr-55" style="edgeStyle=orthogonalEdgeStyle;rounded=0;orthogonalLoop=1;jettySize=auto;html=1;" edge="1" parent="1" source="QTViAyldEMy0qYSyokXr-50" target="QTViAyldEMy0qYSyokXr-52">
          <mxGeometry relative="1" as="geometry" />
        </mxCell>
        <mxCell id="QTViAyldEMy0qYSyokXr-50" value="if win" style="rhombus;whiteSpace=wrap;html=1;" vertex="1" parent="1">
          <mxGeometry x="580" y="880" width="80" height="80" as="geometry" />
        </mxCell>
        <mxCell id="QTViAyldEMy0qYSyokXr-51" value="congrats player" style="rounded=0;whiteSpace=wrap;html=1;" vertex="1" parent="1">
          <mxGeometry x="700" y="890" width="120" height="60" as="geometry" />
        </mxCell>
        <mxCell id="QTViAyldEMy0qYSyokXr-57" style="edgeStyle=orthogonalEdgeStyle;rounded=0;orthogonalLoop=1;jettySize=auto;html=1;entryX=0;entryY=0.5;entryDx=0;entryDy=0;" edge="1" parent="1" source="QTViAyldEMy0qYSyokXr-52" target="QTViAyldEMy0qYSyokXr-56">
          <mxGeometry relative="1" as="geometry">
            <Array as="points">
              <mxPoint x="480" y="1030" />
            </Array>
          </mxGeometry>
        </mxCell>
        <mxCell id="QTViAyldEMy0qYSyokXr-52" value="tell player what word&amp;nbsp;" style="rounded=0;whiteSpace=wrap;html=1;" vertex="1" parent="1">
          <mxGeometry x="430" y="890" width="120" height="60" as="geometry" />
        </mxCell>
        <mxCell id="QTViAyldEMy0qYSyokXr-56" value="end game" style="rounded=1;whiteSpace=wrap;html=1;" vertex="1" parent="1">
          <mxGeometry x="560" y="1000" width="120" height="60" as="geometry" />
        </mxCell>
      </root>
    </mxGraphModel>
  </diagram>
</mxfile>
